# xmcd
#
# Track frame offsets:
#	150
#	14736
#	28488
#	41142
#	55383
#	69529
#	80447
#	92064
#	105187
#	117224
#	128804
#	144337
#	160163
#	175417
#	187965
#	201837
#
# Disc length: 2886 seconds
#
# Revision: 1
# Processed by: cddbd v1.5.2PL0 Copyright (c) Steve Scherf et al.
# Submitted via: audiograbber 1.83.01
#
DISCID=df0b4410
DTITLE=Big Tom - When The Roses Bloom Again
DYEAR=2002
DGENRE=
TTITLE0=When The Roses Bloom Again
TTITLE1=Hello Pretty Lady
TTITLE2=Thorns Of Life
TTITLE3=Amber Tresses
TTITLE4=Wealth Won't Save Your Soul
TTITLE5=Nobody's Darling
TTITLE6=Down The Road I Go
TTITLE7=Gypsy Woman
TTITLE8=Forever Ago
TTITLE9=Oh So Many Years
TTITLE10=No One To Welcome Me Home
TTITLE11=Sleep My Lady
TTITLE12=Mustang and The Cherokee
TTITLE13=Hail, Rail Or Snow
TTITLE14=Jesse James
TTITLE15=Lonesome Guitar
EXTD=
EXTT0=
EXTT1=
EXTT2=
EXTT3=
EXTT4=
EXTT5=
EXTT6=
EXTT7=
EXTT8=
EXTT9=
EXTT10=
EXTT11=
EXTT12=
EXTT13=
EXTT14=
EXTT15=
PLAYORDER=
